<mxfile host="app.diagrams.net" modified="2023-03-16T05:01:35.333Z" agent="5.0 (Windows NT 10.0; Win64; x64) AppleWebKit/537.36 (KHTML, like Gecko) Chrome/111.0.0.0 Safari/537.36" etag="To2Ch7gspEHSifF64b2-" version="21.0.6" type="github" pages="4">
  <diagram id="f5QXr-pcDIZz-H2spPV4" name="sistema general">
    <mxGraphModel dx="596" dy="606" grid="1" gridSize="10" guides="1" tooltips="1" connect="1" arrows="1" fold="1" page="1" pageScale="1" pageWidth="827" pageHeight="1169" math="0" shadow="0">
      <root>
        <mxCell id="0" />
        <mxCell id="1" parent="0" />
        <mxCell id="VYD72FfRjVUFjwt9H9PI-1" value="INICIO" style="ellipse;whiteSpace=wrap;html=1;" vertex="1" parent="1">
          <mxGeometry x="250" y="200" width="130" height="50" as="geometry" />
        </mxCell>
        <mxCell id="VYD72FfRjVUFjwt9H9PI-2" value="pantalla Inicio VFAST" style="rounded=0;whiteSpace=wrap;html=1;" vertex="1" parent="1">
          <mxGeometry x="255" y="280" width="120" height="40" as="geometry" />
        </mxCell>
        <mxCell id="VYD72FfRjVUFjwt9H9PI-3" value="" style="endArrow=none;html=1;rounded=0;entryX=0.5;entryY=1;entryDx=0;entryDy=0;exitX=0.5;exitY=0;exitDx=0;exitDy=0;" edge="1" parent="1" source="VYD72FfRjVUFjwt9H9PI-2" target="VYD72FfRjVUFjwt9H9PI-1">
          <mxGeometry width="50" height="50" relative="1" as="geometry">
            <mxPoint x="510" y="420" as="sourcePoint" />
            <mxPoint x="560" y="370" as="targetPoint" />
          </mxGeometry>
        </mxCell>
        <mxCell id="VYD72FfRjVUFjwt9H9PI-4" value="seleccion del tipo de&amp;nbsp;&lt;br&gt;lugar&amp;nbsp;" style="rounded=0;whiteSpace=wrap;html=1;" vertex="1" parent="1">
          <mxGeometry x="255" y="360" width="120" height="60" as="geometry" />
        </mxCell>
        <mxCell id="2cJx4yhou3pZJs2y1nRH-1" value="ingresa el presupuesto para gastar" style="html=1;strokeWidth=2;shape=manualInput;whiteSpace=wrap;rounded=1;size=13;arcSize=11;" vertex="1" parent="1">
          <mxGeometry x="245" y="450" width="140" height="60" as="geometry" />
        </mxCell>
        <mxCell id="2cJx4yhou3pZJs2y1nRH-2" value="se muestra difentes lugares" style="rounded=0;whiteSpace=wrap;html=1;" vertex="1" parent="1">
          <mxGeometry x="255" y="540" width="120" height="60" as="geometry" />
        </mxCell>
        <mxCell id="2cJx4yhou3pZJs2y1nRH-3" value="Â¿algun sitio planteado?" style="rhombus;whiteSpace=wrap;html=1;" vertex="1" parent="1">
          <mxGeometry x="257.5" y="640" width="115" height="110" as="geometry" />
        </mxCell>
        <mxCell id="2cJx4yhou3pZJs2y1nRH-4" value="no&lt;br&gt;" style="text;html=1;align=center;verticalAlign=middle;resizable=0;points=[];autosize=1;strokeColor=none;fillColor=none;" vertex="1" parent="1">
          <mxGeometry x="360" y="640" width="40" height="30" as="geometry" />
        </mxCell>
        <mxCell id="2cJx4yhou3pZJs2y1nRH-5" value="agradecimiento por usar el sitio" style="rounded=0;whiteSpace=wrap;html=1;" vertex="1" parent="1">
          <mxGeometry x="420" y="670" width="120" height="50" as="geometry" />
        </mxCell>
        <mxCell id="2cJx4yhou3pZJs2y1nRH-6" value="realizar especie de reservacion" style="rounded=0;whiteSpace=wrap;html=1;" vertex="1" parent="1">
          <mxGeometry x="260" y="780" width="120" height="60" as="geometry" />
        </mxCell>
        <mxCell id="2cJx4yhou3pZJs2y1nRH-7" value="se muestra opciones de transporte&amp;nbsp;" style="rounded=0;whiteSpace=wrap;html=1;" vertex="1" parent="1">
          <mxGeometry x="260" y="880" width="120" height="60" as="geometry" />
        </mxCell>
        <mxCell id="co_4srUDB28d0ATriC99-1" value="se muestra informacion final (trsansporte y de lugar)" style="whiteSpace=wrap;html=1;" vertex="1" parent="1">
          <mxGeometry x="233.75" y="970" width="162.5" height="60" as="geometry" />
        </mxCell>
        <mxCell id="bE-ZOn9kpFQqMkcIxSDH-1" value="FIN" style="ellipse;whiteSpace=wrap;html=1;" vertex="1" parent="1">
          <mxGeometry x="257.5" y="1060" width="115" height="40" as="geometry" />
        </mxCell>
        <mxCell id="bE-ZOn9kpFQqMkcIxSDH-2" value="" style="endArrow=none;html=1;rounded=0;entryX=0.5;entryY=1;entryDx=0;entryDy=0;exitX=0.5;exitY=0;exitDx=0;exitDy=0;" edge="1" parent="1" source="VYD72FfRjVUFjwt9H9PI-4" target="VYD72FfRjVUFjwt9H9PI-2">
          <mxGeometry width="50" height="50" relative="1" as="geometry">
            <mxPoint x="280" y="270" as="sourcePoint" />
            <mxPoint x="330" y="220" as="targetPoint" />
          </mxGeometry>
        </mxCell>
        <mxCell id="bE-ZOn9kpFQqMkcIxSDH-3" value="" style="endArrow=none;html=1;rounded=0;entryX=0.5;entryY=1;entryDx=0;entryDy=0;exitX=0.5;exitY=0;exitDx=0;exitDy=0;" edge="1" parent="1" source="2cJx4yhou3pZJs2y1nRH-1" target="VYD72FfRjVUFjwt9H9PI-4">
          <mxGeometry width="50" height="50" relative="1" as="geometry">
            <mxPoint x="325" y="370" as="sourcePoint" />
            <mxPoint x="325" y="330" as="targetPoint" />
          </mxGeometry>
        </mxCell>
        <mxCell id="bE-ZOn9kpFQqMkcIxSDH-4" value="" style="endArrow=none;html=1;rounded=0;entryX=0.5;entryY=1;entryDx=0;entryDy=0;exitX=0.5;exitY=0;exitDx=0;exitDy=0;" edge="1" parent="1" source="2cJx4yhou3pZJs2y1nRH-2" target="2cJx4yhou3pZJs2y1nRH-1">
          <mxGeometry width="50" height="50" relative="1" as="geometry">
            <mxPoint x="280" y="600" as="sourcePoint" />
            <mxPoint x="330" y="550" as="targetPoint" />
          </mxGeometry>
        </mxCell>
        <mxCell id="bE-ZOn9kpFQqMkcIxSDH-5" value="" style="endArrow=none;html=1;rounded=0;entryX=0.5;entryY=1;entryDx=0;entryDy=0;exitX=0.5;exitY=0;exitDx=0;exitDy=0;" edge="1" parent="1" source="2cJx4yhou3pZJs2y1nRH-3" target="2cJx4yhou3pZJs2y1nRH-2">
          <mxGeometry width="50" height="50" relative="1" as="geometry">
            <mxPoint x="325" y="550" as="sourcePoint" />
            <mxPoint x="325" y="520" as="targetPoint" />
          </mxGeometry>
        </mxCell>
        <mxCell id="bE-ZOn9kpFQqMkcIxSDH-6" value="" style="endArrow=none;html=1;rounded=0;entryX=0;entryY=0.5;entryDx=0;entryDy=0;exitX=1;exitY=0.5;exitDx=0;exitDy=0;" edge="1" parent="1" source="2cJx4yhou3pZJs2y1nRH-3" target="2cJx4yhou3pZJs2y1nRH-5">
          <mxGeometry width="50" height="50" relative="1" as="geometry">
            <mxPoint x="335" y="560" as="sourcePoint" />
            <mxPoint x="335" y="530" as="targetPoint" />
          </mxGeometry>
        </mxCell>
        <mxCell id="bE-ZOn9kpFQqMkcIxSDH-8" value="" style="endArrow=none;html=1;rounded=0;entryX=0.5;entryY=1;entryDx=0;entryDy=0;exitX=0.5;exitY=0;exitDx=0;exitDy=0;" edge="1" parent="1" source="2cJx4yhou3pZJs2y1nRH-7" target="2cJx4yhou3pZJs2y1nRH-6">
          <mxGeometry width="50" height="50" relative="1" as="geometry">
            <mxPoint x="324" y="791" as="sourcePoint" />
            <mxPoint x="325" y="760" as="targetPoint" />
          </mxGeometry>
        </mxCell>
        <mxCell id="bE-ZOn9kpFQqMkcIxSDH-12" value="" style="endArrow=none;html=1;rounded=0;exitX=0.5;exitY=0;exitDx=0;exitDy=0;entryX=0.45;entryY=1.017;entryDx=0;entryDy=0;entryPerimeter=0;" edge="1" parent="1" source="co_4srUDB28d0ATriC99-1" target="2cJx4yhou3pZJs2y1nRH-7">
          <mxGeometry width="50" height="50" relative="1" as="geometry">
            <mxPoint x="280" y="940" as="sourcePoint" />
            <mxPoint x="330" y="890" as="targetPoint" />
          </mxGeometry>
        </mxCell>
        <mxCell id="bE-ZOn9kpFQqMkcIxSDH-13" value="" style="endArrow=none;html=1;rounded=0;exitX=0.5;exitY=1;exitDx=0;exitDy=0;entryX=0.5;entryY=0;entryDx=0;entryDy=0;" edge="1" parent="1" source="co_4srUDB28d0ATriC99-1" target="bE-ZOn9kpFQqMkcIxSDH-1">
          <mxGeometry width="50" height="50" relative="1" as="geometry">
            <mxPoint x="280" y="940" as="sourcePoint" />
            <mxPoint x="330" y="890" as="targetPoint" />
          </mxGeometry>
        </mxCell>
        <mxCell id="bE-ZOn9kpFQqMkcIxSDH-15" value="" style="endArrow=none;html=1;rounded=0;entryX=0.5;entryY=1;entryDx=0;entryDy=0;exitX=0.442;exitY=0;exitDx=0;exitDy=0;exitPerimeter=0;" edge="1" parent="1" source="2cJx4yhou3pZJs2y1nRH-6" target="2cJx4yhou3pZJs2y1nRH-3">
          <mxGeometry width="50" height="50" relative="1" as="geometry">
            <mxPoint x="60" y="760" as="sourcePoint" />
            <mxPoint x="200" y="650" as="targetPoint" />
          </mxGeometry>
        </mxCell>
        <mxCell id="bE-ZOn9kpFQqMkcIxSDH-16" value="" style="endArrow=classic;startArrow=classic;html=1;rounded=0;exitX=1;exitY=0.5;exitDx=0;exitDy=0;entryX=0.5;entryY=1;entryDx=0;entryDy=0;" edge="1" parent="1" source="bE-ZOn9kpFQqMkcIxSDH-1" target="2cJx4yhou3pZJs2y1nRH-5">
          <mxGeometry width="50" height="50" relative="1" as="geometry">
            <mxPoint x="280" y="940" as="sourcePoint" />
            <mxPoint x="330" y="890" as="targetPoint" />
            <Array as="points">
              <mxPoint x="480" y="1080" />
            </Array>
          </mxGeometry>
        </mxCell>
      </root>
    </mxGraphModel>
  </diagram>
  <diagram id="C5RBs43oDa-KdzZeNtuy" name="seleccion">
    <mxGraphModel dx="497" dy="505" grid="1" gridSize="10" guides="1" tooltips="1" connect="1" arrows="1" fold="1" page="1" pageScale="1" pageWidth="827" pageHeight="1169" math="0" shadow="0">
      <root>
        <mxCell id="WIyWlLk6GJQsqaUBKTNV-0" />
        <mxCell id="WIyWlLk6GJQsqaUBKTNV-1" parent="WIyWlLk6GJQsqaUBKTNV-0" />
        <mxCell id="WIyWlLk6GJQsqaUBKTNV-6" value="selecciona&amp;nbsp;&lt;br&gt;lugar" style="rhombus;whiteSpace=wrap;html=1;shadow=0;fontFamily=Helvetica;fontSize=12;align=center;strokeWidth=1;spacing=6;spacingTop=-4;" parent="WIyWlLk6GJQsqaUBKTNV-1" vertex="1">
          <mxGeometry x="162.5" y="440" width="100" height="80" as="geometry" />
        </mxCell>
        <mxCell id="2YgWTao4OC41FbOWj5c1-0" value="INICIO" style="ellipse;whiteSpace=wrap;html=1;align=center;" vertex="1" parent="WIyWlLk6GJQsqaUBKTNV-1">
          <mxGeometry x="175" y="20" width="90" height="40" as="geometry" />
        </mxCell>
        <mxCell id="2YgWTao4OC41FbOWj5c1-1" value="" style="endArrow=none;html=1;rounded=0;exitX=0.5;exitY=0;exitDx=0;exitDy=0;entryX=0.5;entryY=1;entryDx=0;entryDy=0;" edge="1" parent="WIyWlLk6GJQsqaUBKTNV-1" target="2YgWTao4OC41FbOWj5c1-0">
          <mxGeometry width="50" height="50" relative="1" as="geometry">
            <mxPoint x="220" y="80" as="sourcePoint" />
            <mxPoint x="190" y="10" as="targetPoint" />
          </mxGeometry>
        </mxCell>
        <mxCell id="2YgWTao4OC41FbOWj5c1-8" style="edgeStyle=orthogonalEdgeStyle;rounded=0;orthogonalLoop=1;jettySize=auto;html=1;exitX=0.5;exitY=1;exitDx=0;exitDy=0;entryX=0.5;entryY=0;entryDx=0;entryDy=0;" edge="1" parent="WIyWlLk6GJQsqaUBKTNV-1" source="2YgWTao4OC41FbOWj5c1-2" target="2YgWTao4OC41FbOWj5c1-3">
          <mxGeometry relative="1" as="geometry">
            <Array as="points">
              <mxPoint x="220" y="160" />
            </Array>
          </mxGeometry>
        </mxCell>
        <mxCell id="2YgWTao4OC41FbOWj5c1-18" style="edgeStyle=orthogonalEdgeStyle;rounded=0;orthogonalLoop=1;jettySize=auto;html=1;exitX=1;exitY=0.5;exitDx=0;exitDy=0;entryX=1;entryY=0.5;entryDx=0;entryDy=0;" edge="1" parent="WIyWlLk6GJQsqaUBKTNV-1" source="2YgWTao4OC41FbOWj5c1-11" target="2YgWTao4OC41FbOWj5c1-2">
          <mxGeometry relative="1" as="geometry">
            <mxPoint x="360" y="100" as="targetPoint" />
          </mxGeometry>
        </mxCell>
        <mxCell id="2YgWTao4OC41FbOWj5c1-2" value="Inicio VFAST" style="rounded=0;whiteSpace=wrap;html=1;" vertex="1" parent="WIyWlLk6GJQsqaUBKTNV-1">
          <mxGeometry x="175" y="80" width="90" height="40" as="geometry" />
        </mxCell>
        <mxCell id="2YgWTao4OC41FbOWj5c1-3" value="Pantalla Principal" style="rounded=0;whiteSpace=wrap;html=1;" vertex="1" parent="WIyWlLk6GJQsqaUBKTNV-1">
          <mxGeometry x="165" y="160" width="105" height="40" as="geometry" />
        </mxCell>
        <mxCell id="2YgWTao4OC41FbOWj5c1-4" value="" style="endArrow=none;html=1;rounded=0;" edge="1" parent="WIyWlLk6GJQsqaUBKTNV-1">
          <mxGeometry width="50" height="50" relative="1" as="geometry">
            <mxPoint x="40" y="410" as="sourcePoint" />
            <mxPoint x="90" y="360" as="targetPoint" />
          </mxGeometry>
        </mxCell>
        <mxCell id="2YgWTao4OC41FbOWj5c1-7" value="" style="endArrow=none;html=1;rounded=0;entryX=0.5;entryY=1;entryDx=0;entryDy=0;exitX=0.5;exitY=0;exitDx=0;exitDy=0;" edge="1" parent="WIyWlLk6GJQsqaUBKTNV-1" source="2YgWTao4OC41FbOWj5c1-23" target="2YgWTao4OC41FbOWj5c1-22">
          <mxGeometry width="50" height="50" relative="1" as="geometry">
            <mxPoint x="80" y="350" as="sourcePoint" />
            <mxPoint x="130" y="300" as="targetPoint" />
          </mxGeometry>
        </mxCell>
        <mxCell id="2YgWTao4OC41FbOWj5c1-9" value="" style="endArrow=none;html=1;rounded=0;" edge="1" parent="WIyWlLk6GJQsqaUBKTNV-1">
          <mxGeometry width="50" height="50" relative="1" as="geometry">
            <mxPoint x="60" y="410" as="sourcePoint" />
            <mxPoint x="110" y="360" as="targetPoint" />
          </mxGeometry>
        </mxCell>
        <mxCell id="2YgWTao4OC41FbOWj5c1-11" value="sigue&amp;nbsp;&lt;br&gt;explorando" style="rhombus;whiteSpace=wrap;html=1;" vertex="1" parent="WIyWlLk6GJQsqaUBKTNV-1">
          <mxGeometry x="330" y="140" width="100" height="80" as="geometry" />
        </mxCell>
        <mxCell id="2YgWTao4OC41FbOWj5c1-12" value="" style="endArrow=none;html=1;rounded=0;entryX=1;entryY=0.5;entryDx=0;entryDy=0;exitX=0;exitY=0.5;exitDx=0;exitDy=0;" edge="1" parent="WIyWlLk6GJQsqaUBKTNV-1" source="2YgWTao4OC41FbOWj5c1-11" target="2YgWTao4OC41FbOWj5c1-3">
          <mxGeometry width="50" height="50" relative="1" as="geometry">
            <mxPoint x="60" y="370" as="sourcePoint" />
            <mxPoint x="110" y="320" as="targetPoint" />
          </mxGeometry>
        </mxCell>
        <mxCell id="2YgWTao4OC41FbOWj5c1-13" value="no" style="text;html=1;align=center;verticalAlign=middle;resizable=0;points=[];autosize=1;strokeColor=none;fillColor=none;" vertex="1" parent="WIyWlLk6GJQsqaUBKTNV-1">
          <mxGeometry x="414" y="140" width="40" height="30" as="geometry" />
        </mxCell>
        <mxCell id="2YgWTao4OC41FbOWj5c1-14" value="" style="endArrow=classic;html=1;rounded=0;" edge="1" parent="WIyWlLk6GJQsqaUBKTNV-1">
          <mxGeometry width="50" height="50" relative="1" as="geometry">
            <mxPoint x="60" y="290" as="sourcePoint" />
            <mxPoint x="110" y="240" as="targetPoint" />
          </mxGeometry>
        </mxCell>
        <mxCell id="2YgWTao4OC41FbOWj5c1-16" value="" style="endArrow=classic;html=1;rounded=0;exitX=1;exitY=0.5;exitDx=0;exitDy=0;entryX=1;entryY=0.5;entryDx=0;entryDy=0;" edge="1" parent="WIyWlLk6GJQsqaUBKTNV-1" source="WIyWlLk6GJQsqaUBKTNV-6" target="2YgWTao4OC41FbOWj5c1-24">
          <mxGeometry width="50" height="50" relative="1" as="geometry">
            <mxPoint x="80" y="490" as="sourcePoint" />
            <mxPoint x="130" y="440" as="targetPoint" />
            <Array as="points">
              <mxPoint x="310" y="480" />
              <mxPoint x="310" y="390" />
            </Array>
          </mxGeometry>
        </mxCell>
        <mxCell id="2YgWTao4OC41FbOWj5c1-17" value="" style="endArrow=classic;html=1;rounded=0;exitX=0.5;exitY=1;exitDx=0;exitDy=0;" edge="1" parent="WIyWlLk6GJQsqaUBKTNV-1" source="WIyWlLk6GJQsqaUBKTNV-6">
          <mxGeometry width="50" height="50" relative="1" as="geometry">
            <mxPoint x="30" y="480" as="sourcePoint" />
            <mxPoint x="390" y="490" as="targetPoint" />
            <Array as="points">
              <mxPoint x="213" y="540" />
              <mxPoint x="330" y="540" />
              <mxPoint x="330" y="490" />
            </Array>
          </mxGeometry>
        </mxCell>
        <mxCell id="2YgWTao4OC41FbOWj5c1-19" value="si" style="text;html=1;align=center;verticalAlign=middle;resizable=0;points=[];autosize=1;strokeColor=none;fillColor=none;" vertex="1" parent="WIyWlLk6GJQsqaUBKTNV-1">
          <mxGeometry x="350" y="230" width="30" height="30" as="geometry" />
        </mxCell>
        <mxCell id="2YgWTao4OC41FbOWj5c1-20" value="" style="endArrow=classic;html=1;rounded=0;exitX=0.5;exitY=1;exitDx=0;exitDy=0;entryX=1;entryY=0.5;entryDx=0;entryDy=0;" edge="1" parent="WIyWlLk6GJQsqaUBKTNV-1" source="2YgWTao4OC41FbOWj5c1-11" target="2YgWTao4OC41FbOWj5c1-22">
          <mxGeometry width="50" height="50" relative="1" as="geometry">
            <mxPoint x="230" y="380" as="sourcePoint" />
            <mxPoint x="280" y="330" as="targetPoint" />
            <Array as="points">
              <mxPoint x="380" y="240" />
              <mxPoint x="380" y="260" />
            </Array>
          </mxGeometry>
        </mxCell>
        <mxCell id="2YgWTao4OC41FbOWj5c1-22" value="Muestra catalogo de lugares" style="rounded=0;whiteSpace=wrap;html=1;" vertex="1" parent="WIyWlLk6GJQsqaUBKTNV-1">
          <mxGeometry x="160" y="240" width="105" height="40" as="geometry" />
        </mxCell>
        <mxCell id="2YgWTao4OC41FbOWj5c1-23" value="selecciona categoria&amp;nbsp;" style="rounded=0;whiteSpace=wrap;html=1;" vertex="1" parent="WIyWlLk6GJQsqaUBKTNV-1">
          <mxGeometry x="160" y="300" width="105" height="40" as="geometry" />
        </mxCell>
        <mxCell id="2YgWTao4OC41FbOWj5c1-24" value="Busca lugar" style="rounded=0;whiteSpace=wrap;html=1;" vertex="1" parent="WIyWlLk6GJQsqaUBKTNV-1">
          <mxGeometry x="160" y="370" width="105" height="40" as="geometry" />
        </mxCell>
        <mxCell id="2YgWTao4OC41FbOWj5c1-25" value="" style="endArrow=none;html=1;rounded=0;entryX=0.5;entryY=1;entryDx=0;entryDy=0;exitX=0.5;exitY=0;exitDx=0;exitDy=0;" edge="1" parent="WIyWlLk6GJQsqaUBKTNV-1" source="2YgWTao4OC41FbOWj5c1-24" target="2YgWTao4OC41FbOWj5c1-23">
          <mxGeometry width="50" height="50" relative="1" as="geometry">
            <mxPoint x="223" y="310" as="sourcePoint" />
            <mxPoint x="223" y="290" as="targetPoint" />
          </mxGeometry>
        </mxCell>
        <mxCell id="2YgWTao4OC41FbOWj5c1-26" value="" style="endArrow=none;html=1;rounded=0;entryX=0.5;entryY=1;entryDx=0;entryDy=0;exitX=0.5;exitY=0;exitDx=0;exitDy=0;" edge="1" parent="WIyWlLk6GJQsqaUBKTNV-1" source="WIyWlLk6GJQsqaUBKTNV-6" target="2YgWTao4OC41FbOWj5c1-24">
          <mxGeometry width="50" height="50" relative="1" as="geometry">
            <mxPoint x="223" y="380" as="sourcePoint" />
            <mxPoint x="223" y="350" as="targetPoint" />
          </mxGeometry>
        </mxCell>
        <mxCell id="2YgWTao4OC41FbOWj5c1-28" value="no" style="text;html=1;align=center;verticalAlign=middle;resizable=0;points=[];autosize=1;strokeColor=none;fillColor=none;" vertex="1" parent="WIyWlLk6GJQsqaUBKTNV-1">
          <mxGeometry x="250" y="445" width="40" height="30" as="geometry" />
        </mxCell>
        <mxCell id="2YgWTao4OC41FbOWj5c1-29" value="si" style="text;html=1;align=center;verticalAlign=middle;resizable=0;points=[];autosize=1;strokeColor=none;fillColor=none;" vertex="1" parent="WIyWlLk6GJQsqaUBKTNV-1">
          <mxGeometry x="235" y="510" width="30" height="30" as="geometry" />
        </mxCell>
        <mxCell id="2YgWTao4OC41FbOWj5c1-30" value="esta al&amp;nbsp;&lt;br&gt;alcance" style="rhombus;whiteSpace=wrap;html=1;" vertex="1" parent="WIyWlLk6GJQsqaUBKTNV-1">
          <mxGeometry x="160" y="670" width="80" height="80" as="geometry" />
        </mxCell>
        <mxCell id="2YgWTao4OC41FbOWj5c1-32" value="no" style="text;html=1;align=center;verticalAlign=middle;resizable=0;points=[];autosize=1;strokeColor=none;fillColor=none;" vertex="1" parent="WIyWlLk6GJQsqaUBKTNV-1">
          <mxGeometry x="110" y="680" width="40" height="30" as="geometry" />
        </mxCell>
        <mxCell id="2YgWTao4OC41FbOWj5c1-33" value="si" style="text;html=1;align=center;verticalAlign=middle;resizable=0;points=[];autosize=1;strokeColor=none;fillColor=none;" vertex="1" parent="WIyWlLk6GJQsqaUBKTNV-1">
          <mxGeometry x="210" y="750" width="30" height="30" as="geometry" />
        </mxCell>
        <mxCell id="2YgWTao4OC41FbOWj5c1-34" value="" style="endArrow=none;html=1;rounded=0;exitX=0.5;exitY=1;exitDx=0;exitDy=0;entryX=0.5;entryY=0;entryDx=0;entryDy=0;" edge="1" parent="WIyWlLk6GJQsqaUBKTNV-1" source="2YgWTao4OC41FbOWj5c1-30" target="2YgWTao4OC41FbOWj5c1-35">
          <mxGeometry width="50" height="50" relative="1" as="geometry">
            <mxPoint x="230" y="640" as="sourcePoint" />
            <mxPoint x="200" y="700" as="targetPoint" />
          </mxGeometry>
        </mxCell>
        <mxCell id="2YgWTao4OC41FbOWj5c1-35" value="se muestra opciones&lt;br&gt;de transportes" style="rounded=0;whiteSpace=wrap;html=1;" vertex="1" parent="WIyWlLk6GJQsqaUBKTNV-1">
          <mxGeometry x="140" y="780" width="120" height="40" as="geometry" />
        </mxCell>
        <mxCell id="2YgWTao4OC41FbOWj5c1-36" value="se proporciona posiciÃ³n" style="rounded=0;whiteSpace=wrap;html=1;" vertex="1" parent="WIyWlLk6GJQsqaUBKTNV-1">
          <mxGeometry x="390" y="470" width="120" height="40" as="geometry" />
        </mxCell>
        <mxCell id="2YgWTao4OC41FbOWj5c1-37" value="" style="endArrow=none;html=1;rounded=0;exitX=0.5;exitY=0;exitDx=0;exitDy=0;" edge="1" parent="WIyWlLk6GJQsqaUBKTNV-1" source="2YgWTao4OC41FbOWj5c1-38">
          <mxGeometry width="50" height="50" relative="1" as="geometry">
            <mxPoint x="230" y="630" as="sourcePoint" />
            <mxPoint x="450" y="510" as="targetPoint" />
          </mxGeometry>
        </mxCell>
        <mxCell id="2YgWTao4OC41FbOWj5c1-38" value="es lejana" style="rhombus;whiteSpace=wrap;html=1;" vertex="1" parent="WIyWlLk6GJQsqaUBKTNV-1">
          <mxGeometry x="410" y="540" width="80" height="80" as="geometry" />
        </mxCell>
        <mxCell id="2YgWTao4OC41FbOWj5c1-39" value="" style="endArrow=none;html=1;rounded=0;entryX=1;entryY=0.5;entryDx=0;entryDy=0;" edge="1" parent="WIyWlLk6GJQsqaUBKTNV-1" target="2YgWTao4OC41FbOWj5c1-38">
          <mxGeometry width="50" height="50" relative="1" as="geometry">
            <mxPoint x="520" y="580" as="sourcePoint" />
            <mxPoint x="460" y="520" as="targetPoint" />
          </mxGeometry>
        </mxCell>
        <mxCell id="2YgWTao4OC41FbOWj5c1-40" value="cercana" style="rounded=0;whiteSpace=wrap;html=1;" vertex="1" parent="WIyWlLk6GJQsqaUBKTNV-1">
          <mxGeometry x="520" y="560" width="120" height="40" as="geometry" />
        </mxCell>
        <mxCell id="2YgWTao4OC41FbOWj5c1-41" value="no" style="text;html=1;align=center;verticalAlign=middle;resizable=0;points=[];autosize=1;strokeColor=none;fillColor=none;" vertex="1" parent="WIyWlLk6GJQsqaUBKTNV-1">
          <mxGeometry x="480" y="545" width="40" height="30" as="geometry" />
        </mxCell>
        <mxCell id="2YgWTao4OC41FbOWj5c1-42" value="si" style="text;html=1;align=center;verticalAlign=middle;resizable=0;points=[];autosize=1;strokeColor=none;fillColor=none;" vertex="1" parent="WIyWlLk6GJQsqaUBKTNV-1">
          <mxGeometry x="400" y="590" width="30" height="30" as="geometry" />
        </mxCell>
        <mxCell id="2YgWTao4OC41FbOWj5c1-44" value="" style="endArrow=none;html=1;rounded=0;exitX=0.5;exitY=0;exitDx=0;exitDy=0;" edge="1" parent="WIyWlLk6GJQsqaUBKTNV-1" source="2YgWTao4OC41FbOWj5c1-30" target="2YgWTao4OC41FbOWj5c1-45">
          <mxGeometry width="50" height="50" relative="1" as="geometry">
            <mxPoint x="250" y="630" as="sourcePoint" />
            <mxPoint x="300" y="580" as="targetPoint" />
          </mxGeometry>
        </mxCell>
        <mxCell id="2YgWTao4OC41FbOWj5c1-45" value="coteja presupuesto&amp;nbsp;&lt;br&gt;de lugar" style="rounded=0;whiteSpace=wrap;html=1;" vertex="1" parent="WIyWlLk6GJQsqaUBKTNV-1">
          <mxGeometry x="140" y="610" width="120" height="40" as="geometry" />
        </mxCell>
        <mxCell id="2YgWTao4OC41FbOWj5c1-46" value="" style="endArrow=none;html=1;rounded=0;entryX=1;entryY=0.5;entryDx=0;entryDy=0;exitX=0.5;exitY=1;exitDx=0;exitDy=0;" edge="1" parent="WIyWlLk6GJQsqaUBKTNV-1" source="2YgWTao4OC41FbOWj5c1-40" target="2YgWTao4OC41FbOWj5c1-45">
          <mxGeometry width="50" height="50" relative="1" as="geometry">
            <mxPoint x="590" y="630" as="sourcePoint" />
            <mxPoint x="300" y="570" as="targetPoint" />
            <Array as="points">
              <mxPoint x="580" y="630" />
            </Array>
          </mxGeometry>
        </mxCell>
        <mxCell id="2YgWTao4OC41FbOWj5c1-47" value="" style="endArrow=none;html=1;rounded=0;entryX=0.5;entryY=1;entryDx=0;entryDy=0;" edge="1" parent="WIyWlLk6GJQsqaUBKTNV-1" target="2YgWTao4OC41FbOWj5c1-38">
          <mxGeometry width="50" height="50" relative="1" as="geometry">
            <mxPoint x="450" y="630" as="sourcePoint" />
            <mxPoint x="300" y="570" as="targetPoint" />
          </mxGeometry>
        </mxCell>
        <mxCell id="2YgWTao4OC41FbOWj5c1-48" value="selecciona&lt;br&gt;transporte" style="rhombus;whiteSpace=wrap;html=1;" vertex="1" parent="WIyWlLk6GJQsqaUBKTNV-1">
          <mxGeometry x="370" y="655" width="80" height="80" as="geometry" />
        </mxCell>
        <mxCell id="2YgWTao4OC41FbOWj5c1-49" value="" style="endArrow=classic;html=1;rounded=0;exitX=1;exitY=0.5;exitDx=0;exitDy=0;entryX=0;entryY=0.5;entryDx=0;entryDy=0;" edge="1" parent="WIyWlLk6GJQsqaUBKTNV-1" source="2YgWTao4OC41FbOWj5c1-35" target="2YgWTao4OC41FbOWj5c1-48">
          <mxGeometry width="50" height="50" relative="1" as="geometry">
            <mxPoint x="340" y="620" as="sourcePoint" />
            <mxPoint x="390" y="570" as="targetPoint" />
            <Array as="points">
              <mxPoint x="320" y="800" />
              <mxPoint x="320" y="695" />
            </Array>
          </mxGeometry>
        </mxCell>
        <mxCell id="2YgWTao4OC41FbOWj5c1-50" value="no" style="text;html=1;align=center;verticalAlign=middle;resizable=0;points=[];autosize=1;strokeColor=none;fillColor=none;" vertex="1" parent="WIyWlLk6GJQsqaUBKTNV-1">
          <mxGeometry x="450" y="655" width="40" height="30" as="geometry" />
        </mxCell>
        <mxCell id="2YgWTao4OC41FbOWj5c1-51" value="si" style="text;html=1;align=center;verticalAlign=middle;resizable=0;points=[];autosize=1;strokeColor=none;fillColor=none;" vertex="1" parent="WIyWlLk6GJQsqaUBKTNV-1">
          <mxGeometry x="360" y="710" width="30" height="30" as="geometry" />
        </mxCell>
        <mxCell id="2YgWTao4OC41FbOWj5c1-52" value="" style="endArrow=none;html=1;rounded=0;entryX=0.5;entryY=1;entryDx=0;entryDy=0;exitX=0.5;exitY=0;exitDx=0;exitDy=0;" edge="1" parent="WIyWlLk6GJQsqaUBKTNV-1" source="2YgWTao4OC41FbOWj5c1-53" target="2YgWTao4OC41FbOWj5c1-48">
          <mxGeometry width="50" height="50" relative="1" as="geometry">
            <mxPoint x="340" y="620" as="sourcePoint" />
            <mxPoint x="390" y="570" as="targetPoint" />
          </mxGeometry>
        </mxCell>
        <mxCell id="2YgWTao4OC41FbOWj5c1-53" value="variante de publico" style="rounded=0;whiteSpace=wrap;html=1;" vertex="1" parent="WIyWlLk6GJQsqaUBKTNV-1">
          <mxGeometry x="355" y="760" width="110" height="35" as="geometry" />
        </mxCell>
        <mxCell id="2YgWTao4OC41FbOWj5c1-54" value="No.Transporte a tomar" style="rounded=0;whiteSpace=wrap;html=1;" vertex="1" parent="WIyWlLk6GJQsqaUBKTNV-1">
          <mxGeometry x="355" y="820" width="110" height="35" as="geometry" />
        </mxCell>
        <mxCell id="2YgWTao4OC41FbOWj5c1-55" value="" style="endArrow=none;html=1;rounded=0;entryX=0.5;entryY=1;entryDx=0;entryDy=0;exitX=0.5;exitY=0;exitDx=0;exitDy=0;" edge="1" parent="WIyWlLk6GJQsqaUBKTNV-1" source="2YgWTao4OC41FbOWj5c1-54" target="2YgWTao4OC41FbOWj5c1-53">
          <mxGeometry width="50" height="50" relative="1" as="geometry">
            <mxPoint x="420" y="770" as="sourcePoint" />
            <mxPoint x="420" y="745" as="targetPoint" />
          </mxGeometry>
        </mxCell>
        <mxCell id="2YgWTao4OC41FbOWj5c1-56" value="" style="endArrow=classic;html=1;rounded=0;exitX=1;exitY=0.5;exitDx=0;exitDy=0;entryX=0.532;entryY=-0.104;entryDx=0;entryDy=0;entryPerimeter=0;" edge="1" parent="WIyWlLk6GJQsqaUBKTNV-1" source="2YgWTao4OC41FbOWj5c1-48" target="2YgWTao4OC41FbOWj5c1-59">
          <mxGeometry width="50" height="50" relative="1" as="geometry">
            <mxPoint x="470" y="890" as="sourcePoint" />
            <mxPoint x="520" y="840" as="targetPoint" />
            <Array as="points">
              <mxPoint x="600" y="695" />
            </Array>
          </mxGeometry>
        </mxCell>
        <mxCell id="2YgWTao4OC41FbOWj5c1-58" value="" style="endArrow=classic;startArrow=classic;html=1;rounded=0;entryX=0;entryY=0.5;entryDx=0;entryDy=0;" edge="1" parent="WIyWlLk6GJQsqaUBKTNV-1" target="2YgWTao4OC41FbOWj5c1-24">
          <mxGeometry width="50" height="50" relative="1" as="geometry">
            <mxPoint x="160" y="710" as="sourcePoint" />
            <mxPoint x="200" y="560" as="targetPoint" />
            <Array as="points">
              <mxPoint x="110" y="710" />
              <mxPoint x="110" y="390" />
            </Array>
          </mxGeometry>
        </mxCell>
        <mxCell id="2YgWTao4OC41FbOWj5c1-59" value="se toma como variante&lt;br&gt;personal" style="rounded=0;whiteSpace=wrap;html=1;" vertex="1" parent="WIyWlLk6GJQsqaUBKTNV-1">
          <mxGeometry x="510" y="757.5" width="170" height="40" as="geometry" />
        </mxCell>
        <mxCell id="2YgWTao4OC41FbOWj5c1-60" value="calcula ruta/tiempo" style="rounded=0;whiteSpace=wrap;html=1;" vertex="1" parent="WIyWlLk6GJQsqaUBKTNV-1">
          <mxGeometry x="540" y="830" width="110" height="35" as="geometry" />
        </mxCell>
        <mxCell id="2YgWTao4OC41FbOWj5c1-61" value="se da presupuesto final" style="rounded=0;whiteSpace=wrap;html=1;" vertex="1" parent="WIyWlLk6GJQsqaUBKTNV-1">
          <mxGeometry x="550" y="910" width="110" height="35" as="geometry" />
        </mxCell>
        <mxCell id="2YgWTao4OC41FbOWj5c1-62" value="FIN" style="ellipse;whiteSpace=wrap;html=1;" vertex="1" parent="WIyWlLk6GJQsqaUBKTNV-1">
          <mxGeometry x="370" y="920" width="90" height="32.5" as="geometry" />
        </mxCell>
        <mxCell id="2YgWTao4OC41FbOWj5c1-63" value="" style="endArrow=classic;html=1;rounded=0;entryX=0;entryY=0.5;entryDx=0;entryDy=0;exitX=1;exitY=0.75;exitDx=0;exitDy=0;" edge="1" parent="WIyWlLk6GJQsqaUBKTNV-1" source="2YgWTao4OC41FbOWj5c1-54" target="2YgWTao4OC41FbOWj5c1-60">
          <mxGeometry width="50" height="50" relative="1" as="geometry">
            <mxPoint x="470" y="848" as="sourcePoint" />
            <mxPoint x="520" y="820" as="targetPoint" />
          </mxGeometry>
        </mxCell>
        <mxCell id="2YgWTao4OC41FbOWj5c1-64" value="" style="endArrow=none;html=1;rounded=0;entryX=0.542;entryY=1.021;entryDx=0;entryDy=0;entryPerimeter=0;exitX=0.55;exitY=-0.048;exitDx=0;exitDy=0;exitPerimeter=0;" edge="1" parent="WIyWlLk6GJQsqaUBKTNV-1" source="2YgWTao4OC41FbOWj5c1-60" target="2YgWTao4OC41FbOWj5c1-59">
          <mxGeometry width="50" height="50" relative="1" as="geometry">
            <mxPoint x="470" y="870" as="sourcePoint" />
            <mxPoint x="520" y="820" as="targetPoint" />
          </mxGeometry>
        </mxCell>
        <mxCell id="2YgWTao4OC41FbOWj5c1-65" value="" style="endArrow=none;html=1;rounded=0;entryX=0.5;entryY=1;entryDx=0;entryDy=0;" edge="1" parent="WIyWlLk6GJQsqaUBKTNV-1" target="2YgWTao4OC41FbOWj5c1-60">
          <mxGeometry width="50" height="50" relative="1" as="geometry">
            <mxPoint x="595" y="910" as="sourcePoint" />
            <mxPoint x="520" y="820" as="targetPoint" />
          </mxGeometry>
        </mxCell>
        <mxCell id="2YgWTao4OC41FbOWj5c1-66" value="" style="endArrow=none;html=1;rounded=0;entryX=0;entryY=0.75;entryDx=0;entryDy=0;exitX=1;exitY=0.5;exitDx=0;exitDy=0;" edge="1" parent="WIyWlLk6GJQsqaUBKTNV-1" source="2YgWTao4OC41FbOWj5c1-62" target="2YgWTao4OC41FbOWj5c1-61">
          <mxGeometry width="50" height="50" relative="1" as="geometry">
            <mxPoint x="470" y="870" as="sourcePoint" />
            <mxPoint x="520" y="820" as="targetPoint" />
          </mxGeometry>
        </mxCell>
      </root>
    </mxGraphModel>
  </diagram>
  <diagram id="DK2h7lBJBhX8GFT1CkL7" name="login">
    <mxGraphModel dx="596" dy="606" grid="1" gridSize="10" guides="1" tooltips="1" connect="1" arrows="1" fold="1" page="1" pageScale="1" pageWidth="827" pageHeight="1169" math="0" shadow="0">
      <root>
        <mxCell id="0" />
        <mxCell id="1" parent="0" />
        <mxCell id="3UoOszcR26u2vfgGP58N-1" value="INICIO" style="ellipse;whiteSpace=wrap;html=1;" vertex="1" parent="1">
          <mxGeometry x="250" y="200" width="130" height="50" as="geometry" />
        </mxCell>
        <mxCell id="AZZOgU9t4M4VJcHvV11n-2" value="Ingresa los datos que se le soliicta en los campos&amp;nbsp;" style="html=1;strokeWidth=2;shape=manualInput;whiteSpace=wrap;rounded=1;size=13;arcSize=11;" vertex="1" parent="1">
          <mxGeometry x="230" y="440" width="140" height="60" as="geometry" />
        </mxCell>
        <mxCell id="AZZOgU9t4M4VJcHvV11n-3" value="Inicio VFAST" style="rounded=0;whiteSpace=wrap;html=1;" vertex="1" parent="1">
          <mxGeometry x="255" y="280" width="120" height="40" as="geometry" />
        </mxCell>
        <mxCell id="AZZOgU9t4M4VJcHvV11n-4" value="ingresar &quot;iniciar sesion&quot;" style="rounded=0;whiteSpace=wrap;html=1;" vertex="1" parent="1">
          <mxGeometry x="255" y="350" width="120" height="60" as="geometry" />
        </mxCell>
        <mxCell id="AZZOgU9t4M4VJcHvV11n-6" value="capturan los&amp;nbsp; datos&amp;nbsp;" style="shape=parallelogram;perimeter=parallelogramPerimeter;whiteSpace=wrap;html=1;fixedSize=1;" vertex="1" parent="1">
          <mxGeometry x="235" y="540" width="130" height="60" as="geometry" />
        </mxCell>
        <mxCell id="AZZOgU9t4M4VJcHvV11n-8" value="consultan los datos&amp;nbsp;" style="rhombus;whiteSpace=wrap;html=1;" vertex="1" parent="1">
          <mxGeometry x="245" y="630" width="110" height="80" as="geometry" />
        </mxCell>
        <mxCell id="AZZOgU9t4M4VJcHvV11n-9" value="pantalla respectiva al tipo de usuario" style="rounded=0;whiteSpace=wrap;html=1;" vertex="1" parent="1">
          <mxGeometry x="240" y="760" width="120" height="60" as="geometry" />
        </mxCell>
        <mxCell id="AZZOgU9t4M4VJcHvV11n-10" value="registrarse&amp;nbsp;" style="rounded=0;whiteSpace=wrap;html=1;" vertex="1" parent="1">
          <mxGeometry x="450" y="640" width="120" height="60" as="geometry" />
        </mxCell>
        <mxCell id="AZZOgU9t4M4VJcHvV11n-11" value="recuperar contraseÃ±a" style="rounded=0;whiteSpace=wrap;html=1;" vertex="1" parent="1">
          <mxGeometry x="450" y="740" width="120" height="60" as="geometry" />
        </mxCell>
        <mxCell id="AZZOgU9t4M4VJcHvV11n-13" value="no" style="text;html=1;align=center;verticalAlign=middle;resizable=0;points=[];autosize=1;strokeColor=none;fillColor=none;" vertex="1" parent="1">
          <mxGeometry x="350" y="635" width="40" height="30" as="geometry" />
        </mxCell>
        <mxCell id="AZZOgU9t4M4VJcHvV11n-14" value="si" style="text;html=1;align=center;verticalAlign=middle;resizable=0;points=[];autosize=1;strokeColor=none;fillColor=none;" vertex="1" parent="1">
          <mxGeometry x="225" y="695" width="30" height="30" as="geometry" />
        </mxCell>
        <mxCell id="AZZOgU9t4M4VJcHvV11n-16" value="" style="endArrow=none;html=1;rounded=0;exitX=0.5;exitY=1;exitDx=0;exitDy=0;entryX=0.5;entryY=0;entryDx=0;entryDy=0;" edge="1" parent="1" source="AZZOgU9t4M4VJcHvV11n-8" target="AZZOgU9t4M4VJcHvV11n-9">
          <mxGeometry width="50" height="50" relative="1" as="geometry">
            <mxPoint x="280" y="640" as="sourcePoint" />
            <mxPoint x="330" y="590" as="targetPoint" />
          </mxGeometry>
        </mxCell>
        <mxCell id="DY0LpUFtJNC0SuKeLCFg-3" value="" style="endArrow=classic;html=1;rounded=0;exitX=1;exitY=0.5;exitDx=0;exitDy=0;entryX=0;entryY=0.5;entryDx=0;entryDy=0;" edge="1" parent="1" source="AZZOgU9t4M4VJcHvV11n-8" target="AZZOgU9t4M4VJcHvV11n-10">
          <mxGeometry width="50" height="50" relative="1" as="geometry">
            <mxPoint x="280" y="640" as="sourcePoint" />
            <mxPoint x="330" y="590" as="targetPoint" />
          </mxGeometry>
        </mxCell>
        <mxCell id="DY0LpUFtJNC0SuKeLCFg-8" value="" style="endArrow=classic;html=1;rounded=0;entryX=0.5;entryY=0;entryDx=0;entryDy=0;exitX=0.5;exitY=1;exitDx=0;exitDy=0;" edge="1" parent="1" source="AZZOgU9t4M4VJcHvV11n-10" target="AZZOgU9t4M4VJcHvV11n-11">
          <mxGeometry width="50" height="50" relative="1" as="geometry">
            <mxPoint x="280" y="640" as="sourcePoint" />
            <mxPoint x="330" y="590" as="targetPoint" />
          </mxGeometry>
        </mxCell>
        <mxCell id="X3ZULsU46-b0JOtK-wnu-1" value="" style="endArrow=none;html=1;rounded=0;entryX=0.5;entryY=1;entryDx=0;entryDy=0;exitX=0.5;exitY=0;exitDx=0;exitDy=0;" edge="1" parent="1" source="AZZOgU9t4M4VJcHvV11n-3" target="3UoOszcR26u2vfgGP58N-1">
          <mxGeometry width="50" height="50" relative="1" as="geometry">
            <mxPoint x="510" y="420" as="sourcePoint" />
            <mxPoint x="560" y="370" as="targetPoint" />
          </mxGeometry>
        </mxCell>
        <mxCell id="X3ZULsU46-b0JOtK-wnu-2" value="" style="endArrow=none;html=1;rounded=0;entryX=0.5;entryY=1;entryDx=0;entryDy=0;exitX=0.5;exitY=0.017;exitDx=0;exitDy=0;exitPerimeter=0;" edge="1" parent="1" source="AZZOgU9t4M4VJcHvV11n-4" target="AZZOgU9t4M4VJcHvV11n-3">
          <mxGeometry width="50" height="50" relative="1" as="geometry">
            <mxPoint x="325" y="290" as="sourcePoint" />
            <mxPoint x="325" y="260" as="targetPoint" />
          </mxGeometry>
        </mxCell>
        <mxCell id="X3ZULsU46-b0JOtK-wnu-3" value="" style="endArrow=none;html=1;rounded=0;entryX=0.442;entryY=1.033;entryDx=0;entryDy=0;entryPerimeter=0;exitX=0.557;exitY=0.083;exitDx=0;exitDy=0;exitPerimeter=0;" edge="1" parent="1" source="AZZOgU9t4M4VJcHvV11n-2" target="AZZOgU9t4M4VJcHvV11n-4">
          <mxGeometry width="50" height="50" relative="1" as="geometry">
            <mxPoint x="280" y="640" as="sourcePoint" />
            <mxPoint x="330" y="590" as="targetPoint" />
          </mxGeometry>
        </mxCell>
        <mxCell id="X3ZULsU46-b0JOtK-wnu-4" value="" style="endArrow=none;html=1;rounded=0;exitX=0.569;exitY=0.017;exitDx=0;exitDy=0;exitPerimeter=0;" edge="1" parent="1" source="AZZOgU9t4M4VJcHvV11n-6">
          <mxGeometry width="50" height="50" relative="1" as="geometry">
            <mxPoint x="280" y="640" as="sourcePoint" />
            <mxPoint x="309" y="500" as="targetPoint" />
          </mxGeometry>
        </mxCell>
        <mxCell id="X3ZULsU46-b0JOtK-wnu-5" value="" style="endArrow=none;html=1;rounded=0;exitX=0.5;exitY=0;exitDx=0;exitDy=0;entryX=0.5;entryY=1;entryDx=0;entryDy=0;" edge="1" parent="1" source="AZZOgU9t4M4VJcHvV11n-8" target="AZZOgU9t4M4VJcHvV11n-6">
          <mxGeometry width="50" height="50" relative="1" as="geometry">
            <mxPoint x="280" y="640" as="sourcePoint" />
            <mxPoint x="330" y="590" as="targetPoint" />
          </mxGeometry>
        </mxCell>
        <mxCell id="X3ZULsU46-b0JOtK-wnu-6" value="FIN" style="ellipse;whiteSpace=wrap;html=1;" vertex="1" parent="1">
          <mxGeometry x="240" y="860" width="120" height="50" as="geometry" />
        </mxCell>
        <mxCell id="X3ZULsU46-b0JOtK-wnu-8" value="" style="endArrow=none;html=1;rounded=0;entryX=0.5;entryY=1;entryDx=0;entryDy=0;exitX=0.5;exitY=0;exitDx=0;exitDy=0;" edge="1" parent="1" source="X3ZULsU46-b0JOtK-wnu-6" target="AZZOgU9t4M4VJcHvV11n-9">
          <mxGeometry width="50" height="50" relative="1" as="geometry">
            <mxPoint x="280" y="970" as="sourcePoint" />
            <mxPoint x="330" y="920" as="targetPoint" />
          </mxGeometry>
        </mxCell>
      </root>
    </mxGraphModel>
  </diagram>
  <diagram id="jkXkqO9x-9iVtHr4SF3l" name="registro">
    <mxGraphModel dx="596" dy="606" grid="1" gridSize="10" guides="1" tooltips="1" connect="1" arrows="1" fold="1" page="1" pageScale="1" pageWidth="827" pageHeight="1169" math="0" shadow="0">
      <root>
        <mxCell id="0" />
        <mxCell id="1" parent="0" />
        <mxCell id="uEqykliXRxEZrWuiLb4x-1" value="INICIO" style="ellipse;whiteSpace=wrap;html=1;" vertex="1" parent="1">
          <mxGeometry x="250" y="200" width="130" height="50" as="geometry" />
        </mxCell>
        <mxCell id="uEqykliXRxEZrWuiLb4x-2" value="Registro" style="rounded=0;whiteSpace=wrap;html=1;" vertex="1" parent="1">
          <mxGeometry x="255" y="280" width="120" height="40" as="geometry" />
        </mxCell>
        <mxCell id="uEqykliXRxEZrWuiLb4x-4" value="" style="endArrow=none;html=1;rounded=0;entryX=0.5;entryY=1;entryDx=0;entryDy=0;exitX=0.5;exitY=0;exitDx=0;exitDy=0;" edge="1" parent="1" source="uEqykliXRxEZrWuiLb4x-2" target="uEqykliXRxEZrWuiLb4x-1">
          <mxGeometry width="50" height="50" relative="1" as="geometry">
            <mxPoint x="510" y="420" as="sourcePoint" />
            <mxPoint x="560" y="370" as="targetPoint" />
          </mxGeometry>
        </mxCell>
        <mxCell id="uEqykliXRxEZrWuiLb4x-5" value="" style="endArrow=none;html=1;rounded=0;entryX=0.5;entryY=1;entryDx=0;entryDy=0;exitX=0.5;exitY=0.017;exitDx=0;exitDy=0;exitPerimeter=0;" edge="1" parent="1" target="uEqykliXRxEZrWuiLb4x-2">
          <mxGeometry width="50" height="50" relative="1" as="geometry">
            <mxPoint x="315" y="351.02" as="sourcePoint" />
            <mxPoint x="325" y="260" as="targetPoint" />
          </mxGeometry>
        </mxCell>
        <mxCell id="O7Q7KteigAiKZIF88i4P-1" value="Ingresa los datos que se le soliicta en los campos&amp;nbsp;" style="html=1;strokeWidth=2;shape=manualInput;whiteSpace=wrap;rounded=1;size=13;arcSize=11;" vertex="1" parent="1">
          <mxGeometry x="245" y="340" width="140" height="60" as="geometry" />
        </mxCell>
        <mxCell id="O7Q7KteigAiKZIF88i4P-2" value="" style="endArrow=none;html=1;rounded=0;entryX=0.5;entryY=1;entryDx=0;entryDy=0;" edge="1" parent="1" target="O7Q7KteigAiKZIF88i4P-1">
          <mxGeometry width="50" height="50" relative="1" as="geometry">
            <mxPoint x="315" y="450" as="sourcePoint" />
            <mxPoint x="330" y="290" as="targetPoint" />
          </mxGeometry>
        </mxCell>
        <mxCell id="O7Q7KteigAiKZIF88i4P-3" value="&lt;br&gt;" style="rhombus;whiteSpace=wrap;html=1;" vertex="1" parent="1">
          <mxGeometry x="265" y="545" width="80" height="80" as="geometry" />
        </mxCell>
        <mxCell id="O7Q7KteigAiKZIF88i4P-4" value="eleccion tipo&lt;br&gt;de usuario&amp;nbsp;" style="shape=parallelogram;perimeter=parallelogramPerimeter;whiteSpace=wrap;html=1;fixedSize=1;" vertex="1" parent="1">
          <mxGeometry x="245" y="450" width="120" height="60" as="geometry" />
        </mxCell>
        <mxCell id="O7Q7KteigAiKZIF88i4P-5" value="no&amp;nbsp;&lt;br&gt;" style="text;html=1;align=center;verticalAlign=middle;resizable=0;points=[];autosize=1;strokeColor=none;fillColor=none;" vertex="1" parent="1">
          <mxGeometry x="240" y="605" width="40" height="30" as="geometry" />
        </mxCell>
        <mxCell id="O7Q7KteigAiKZIF88i4P-6" value="si&amp;nbsp;&lt;br&gt;" style="text;html=1;align=center;verticalAlign=middle;resizable=0;points=[];autosize=1;strokeColor=none;fillColor=none;" vertex="1" parent="1">
          <mxGeometry x="359" y="525" width="40" height="30" as="geometry" />
        </mxCell>
        <mxCell id="O7Q7KteigAiKZIF88i4P-8" value="proceso de &lt;br&gt;pago" style="rounded=0;whiteSpace=wrap;html=1;" vertex="1" parent="1">
          <mxGeometry x="400" y="567.5" width="95" height="35" as="geometry" />
        </mxCell>
        <mxCell id="O7Q7KteigAiKZIF88i4P-9" value="" style="endArrow=classic;html=1;rounded=0;entryX=0;entryY=0.5;entryDx=0;entryDy=0;exitX=1;exitY=0.5;exitDx=0;exitDy=0;" edge="1" parent="1" source="O7Q7KteigAiKZIF88i4P-3" target="O7Q7KteigAiKZIF88i4P-8">
          <mxGeometry width="50" height="50" relative="1" as="geometry">
            <mxPoint x="280" y="640" as="sourcePoint" />
            <mxPoint x="330" y="590" as="targetPoint" />
          </mxGeometry>
        </mxCell>
        <mxCell id="O7Q7KteigAiKZIF88i4P-10" value="pantalla respectiva al tipo de usuario&amp;nbsp;" style="rounded=0;whiteSpace=wrap;html=1;" vertex="1" parent="1">
          <mxGeometry x="245" y="680" width="120" height="60" as="geometry" />
        </mxCell>
        <mxCell id="O7Q7KteigAiKZIF88i4P-11" value="" style="endArrow=none;html=1;rounded=0;exitX=0.5;exitY=1;exitDx=0;exitDy=0;entryX=0.5;entryY=0;entryDx=0;entryDy=0;" edge="1" parent="1" source="O7Q7KteigAiKZIF88i4P-3" target="O7Q7KteigAiKZIF88i4P-10">
          <mxGeometry width="50" height="50" relative="1" as="geometry">
            <mxPoint x="280" y="640" as="sourcePoint" />
            <mxPoint x="330" y="590" as="targetPoint" />
          </mxGeometry>
        </mxCell>
        <mxCell id="O7Q7KteigAiKZIF88i4P-12" value="" style="endArrow=classic;startArrow=classic;html=1;rounded=0;exitX=1;exitY=0.5;exitDx=0;exitDy=0;entryX=1;entryY=0.5;entryDx=0;entryDy=0;" edge="1" parent="1" source="O7Q7KteigAiKZIF88i4P-8" target="O7Q7KteigAiKZIF88i4P-10">
          <mxGeometry width="50" height="50" relative="1" as="geometry">
            <mxPoint x="280" y="640" as="sourcePoint" />
            <mxPoint x="330" y="590" as="targetPoint" />
            <Array as="points">
              <mxPoint x="550" y="585" />
              <mxPoint x="550" y="710" />
            </Array>
          </mxGeometry>
        </mxCell>
        <mxCell id="O7Q7KteigAiKZIF88i4P-15" value="" style="endArrow=none;html=1;rounded=0;exitX=0.5;exitY=1;exitDx=0;exitDy=0;" edge="1" parent="1" source="O7Q7KteigAiKZIF88i4P-10">
          <mxGeometry width="50" height="50" relative="1" as="geometry">
            <mxPoint x="280" y="640" as="sourcePoint" />
            <mxPoint x="305" y="780" as="targetPoint" />
          </mxGeometry>
        </mxCell>
        <mxCell id="O7Q7KteigAiKZIF88i4P-16" value="FIN" style="ellipse;whiteSpace=wrap;html=1;" vertex="1" parent="1">
          <mxGeometry x="260" y="780" width="85" height="40" as="geometry" />
        </mxCell>
        <mxCell id="O7Q7KteigAiKZIF88i4P-17" value="" style="endArrow=none;html=1;rounded=0;entryX=0.5;entryY=1;entryDx=0;entryDy=0;exitX=0.5;exitY=0;exitDx=0;exitDy=0;" edge="1" parent="1" source="O7Q7KteigAiKZIF88i4P-3" target="O7Q7KteigAiKZIF88i4P-4">
          <mxGeometry width="50" height="50" relative="1" as="geometry">
            <mxPoint x="300" y="540" as="sourcePoint" />
            <mxPoint x="330" y="590" as="targetPoint" />
          </mxGeometry>
        </mxCell>
        <mxCell id="O7Q7KteigAiKZIF88i4P-18" value="free" style="text;html=1;align=center;verticalAlign=middle;resizable=0;points=[];autosize=1;strokeColor=none;fillColor=none;" vertex="1" parent="1">
          <mxGeometry x="285" y="584.5" width="40" height="30" as="geometry" />
        </mxCell>
        <mxCell id="O7Q7KteigAiKZIF88i4P-19" value="premium" style="text;html=1;align=center;verticalAlign=middle;resizable=0;points=[];autosize=1;strokeColor=none;fillColor=none;" vertex="1" parent="1">
          <mxGeometry x="270" y="565" width="70" height="30" as="geometry" />
        </mxCell>
      </root>
    </mxGraphModel>
  </diagram>
</mxfile>
